<mxfile host="app.diagrams.net" modified="2022-04-06T09:54:17.798Z" agent="5.0 (Windows NT 10.0; Win64; x64) AppleWebKit/537.36 (KHTML, like Gecko) Chrome/100.0.4896.60 Safari/537.36 Edg/100.0.1185.29" etag="GrmjdT4AxmG0B_2iT8bZ" version="17.4.0" type="github">
  <diagram id="C5RBs43oDa-KdzZeNtuy" name="第 1 页">
    <mxGraphModel dx="1824" dy="1060" grid="0" gridSize="10" guides="1" tooltips="1" connect="1" arrows="1" fold="1" page="0" pageScale="1" pageWidth="827" pageHeight="1169" math="0" shadow="0">
      <root>
        <mxCell id="WIyWlLk6GJQsqaUBKTNV-0" />
        <mxCell id="WIyWlLk6GJQsqaUBKTNV-1" parent="WIyWlLk6GJQsqaUBKTNV-0" />
        <mxCell id="eu6fkqRIewA48-TLuKrc-0" value="" style="shape=partialRectangle;whiteSpace=wrap;html=1;left=0;right=0;fontSize=12;align=left;verticalAlign=middle;fontColor=#333333;fillColor=none;strokeColor=#B3B3B3;" vertex="1" parent="WIyWlLk6GJQsqaUBKTNV-1">
          <mxGeometry x="278" y="84" width="920" height="120" as="geometry" />
        </mxCell>
        <mxCell id="eu6fkqRIewA48-TLuKrc-1" value="" style="shape=partialRectangle;whiteSpace=wrap;html=1;left=0;right=0;fontSize=12;align=left;verticalAlign=middle;fillColor=none;strokeColor=#B3B3B3;" vertex="1" parent="WIyWlLk6GJQsqaUBKTNV-1">
          <mxGeometry x="278" y="204" width="920" height="440" as="geometry" />
        </mxCell>
        <mxCell id="eu6fkqRIewA48-TLuKrc-2" value="" style="shape=partialRectangle;whiteSpace=wrap;html=1;left=0;right=0;fontSize=12;align=left;verticalAlign=middle;fontColor=#333333;fillColor=none;strokeColor=#B3B3B3;" vertex="1" parent="WIyWlLk6GJQsqaUBKTNV-1">
          <mxGeometry x="278" y="644" width="920" height="160" as="geometry" />
        </mxCell>
        <mxCell id="eu6fkqRIewA48-TLuKrc-3" value="" style="rounded=0;whiteSpace=wrap;html=1;fontSize=12;verticalAlign=middle;dashed=1;strokeColor=#d6b656;fillColor=#fff2cc;" vertex="1" parent="WIyWlLk6GJQsqaUBKTNV-1">
          <mxGeometry x="958" y="244" width="200" height="360" as="geometry" />
        </mxCell>
        <mxCell id="eu6fkqRIewA48-TLuKrc-4" value="周期同步" style="edgeStyle=orthogonalEdgeStyle;rounded=0;orthogonalLoop=1;jettySize=auto;html=1;entryX=0.5;entryY=1;entryDx=0;entryDy=0;strokeWidth=1;exitX=0.5;exitY=0;exitDx=0;exitDy=0;exitPerimeter=0;entryPerimeter=0;" edge="1" parent="WIyWlLk6GJQsqaUBKTNV-1" source="eu6fkqRIewA48-TLuKrc-24" target="eu6fkqRIewA48-TLuKrc-25">
          <mxGeometry relative="1" as="geometry">
            <mxPoint x="858" y="684" as="sourcePoint" />
            <mxPoint x="858" y="564" as="targetPoint" />
          </mxGeometry>
        </mxCell>
        <mxCell id="eu6fkqRIewA48-TLuKrc-5" value="规则圈人" style="rounded=0;whiteSpace=wrap;html=1;" vertex="1" parent="WIyWlLk6GJQsqaUBKTNV-1">
          <mxGeometry x="438" y="284" width="120" height="40" as="geometry" />
        </mxCell>
        <mxCell id="eu6fkqRIewA48-TLuKrc-6" style="edgeStyle=orthogonalEdgeStyle;rounded=0;orthogonalLoop=1;jettySize=auto;html=1;exitX=1;exitY=0.5;exitDx=0;exitDy=0;entryX=0;entryY=0.5;entryDx=0;entryDy=0;fontSize=20;entryPerimeter=0;" edge="1" parent="WIyWlLk6GJQsqaUBKTNV-1" source="eu6fkqRIewA48-TLuKrc-21" target="eu6fkqRIewA48-TLuKrc-25">
          <mxGeometry relative="1" as="geometry">
            <mxPoint x="718" y="544" as="targetPoint" />
          </mxGeometry>
        </mxCell>
        <mxCell id="eu6fkqRIewA48-TLuKrc-7" style="edgeStyle=orthogonalEdgeStyle;rounded=0;orthogonalLoop=1;jettySize=auto;html=1;exitX=1;exitY=0.5;exitDx=0;exitDy=0;entryX=0;entryY=0.5;entryDx=0;entryDy=0;fontSize=12;strokeWidth=1;entryPerimeter=0;" edge="1" parent="WIyWlLk6GJQsqaUBKTNV-1" source="eu6fkqRIewA48-TLuKrc-8" target="eu6fkqRIewA48-TLuKrc-25">
          <mxGeometry relative="1" as="geometry">
            <mxPoint x="718" y="544" as="targetPoint" />
          </mxGeometry>
        </mxCell>
        <mxCell id="eu6fkqRIewA48-TLuKrc-8" value="用户画像" style="rounded=0;whiteSpace=wrap;html=1;" vertex="1" parent="WIyWlLk6GJQsqaUBKTNV-1">
          <mxGeometry x="438" y="444" width="120" height="40" as="geometry" />
        </mxCell>
        <mxCell id="eu6fkqRIewA48-TLuKrc-9" style="edgeStyle=orthogonalEdgeStyle;rounded=0;orthogonalLoop=1;jettySize=auto;html=1;fontSize=20;exitX=1;exitY=0.5;exitDx=0;exitDy=0;entryX=0;entryY=0.5;entryDx=0;entryDy=0;entryPerimeter=0;" edge="1" parent="WIyWlLk6GJQsqaUBKTNV-1" source="eu6fkqRIewA48-TLuKrc-10" target="eu6fkqRIewA48-TLuKrc-25">
          <mxGeometry relative="1" as="geometry">
            <mxPoint x="718" y="544" as="targetPoint" />
          </mxGeometry>
        </mxCell>
        <mxCell id="eu6fkqRIewA48-TLuKrc-10" value="用户360明细画像" style="rounded=0;whiteSpace=wrap;html=1;" vertex="1" parent="WIyWlLk6GJQsqaUBKTNV-1">
          <mxGeometry x="438" y="524" width="120" height="40" as="geometry" />
        </mxCell>
        <mxCell id="eu6fkqRIewA48-TLuKrc-11" value="数据仓库" style="text;html=1;strokeColor=none;fillColor=none;align=left;verticalAlign=middle;rounded=0;fontSize=20;fontStyle=1" vertex="1" parent="WIyWlLk6GJQsqaUBKTNV-1">
          <mxGeometry x="298" y="704" width="110" height="40" as="geometry" />
        </mxCell>
        <mxCell id="eu6fkqRIewA48-TLuKrc-12" value="标签平台" style="text;html=1;strokeColor=none;fillColor=none;align=left;verticalAlign=middle;rounded=0;fontSize=20;fontStyle=1" vertex="1" parent="WIyWlLk6GJQsqaUBKTNV-1">
          <mxGeometry x="298" y="404" width="110" height="40" as="geometry" />
        </mxCell>
        <mxCell id="eu6fkqRIewA48-TLuKrc-13" style="edgeStyle=orthogonalEdgeStyle;rounded=0;orthogonalLoop=1;jettySize=auto;html=1;entryX=1;entryY=0.5;entryDx=0;entryDy=0;fontSize=12;strokeWidth=1;entryPerimeter=0;" edge="1" parent="WIyWlLk6GJQsqaUBKTNV-1" source="eu6fkqRIewA48-TLuKrc-14" target="eu6fkqRIewA48-TLuKrc-25">
          <mxGeometry relative="1" as="geometry">
            <mxPoint x="838" y="544" as="targetPoint" />
          </mxGeometry>
        </mxCell>
        <mxCell id="eu6fkqRIewA48-TLuKrc-14" value="人群命中接口" style="shape=parallelogram;perimeter=parallelogramPerimeter;whiteSpace=wrap;html=1;fixedSize=1;fontSize=12;" vertex="1" parent="WIyWlLk6GJQsqaUBKTNV-1">
          <mxGeometry x="998" y="284" width="120" height="40" as="geometry" />
        </mxCell>
        <mxCell id="eu6fkqRIewA48-TLuKrc-15" style="edgeStyle=orthogonalEdgeStyle;rounded=0;orthogonalLoop=1;jettySize=auto;html=1;exitX=0;exitY=0.5;exitDx=0;exitDy=0;entryX=1;entryY=0.5;entryDx=0;entryDy=0;fontSize=12;strokeWidth=1;entryPerimeter=0;" edge="1" parent="WIyWlLk6GJQsqaUBKTNV-1" source="eu6fkqRIewA48-TLuKrc-16" target="eu6fkqRIewA48-TLuKrc-25">
          <mxGeometry relative="1" as="geometry">
            <mxPoint x="838" y="544" as="targetPoint" />
          </mxGeometry>
        </mxCell>
        <mxCell id="eu6fkqRIewA48-TLuKrc-16" value="人群下载接口" style="shape=parallelogram;perimeter=parallelogramPerimeter;whiteSpace=wrap;html=1;fixedSize=1;fontSize=12;" vertex="1" parent="WIyWlLk6GJQsqaUBKTNV-1">
          <mxGeometry x="998" y="364" width="120" height="40" as="geometry" />
        </mxCell>
        <mxCell id="eu6fkqRIewA48-TLuKrc-17" style="edgeStyle=orthogonalEdgeStyle;rounded=0;orthogonalLoop=1;jettySize=auto;html=1;exitX=0;exitY=0.5;exitDx=0;exitDy=0;entryX=1;entryY=0.5;entryDx=0;entryDy=0;fontSize=12;strokeWidth=1;entryPerimeter=0;" edge="1" parent="WIyWlLk6GJQsqaUBKTNV-1" source="eu6fkqRIewA48-TLuKrc-18" target="eu6fkqRIewA48-TLuKrc-25">
          <mxGeometry relative="1" as="geometry">
            <mxPoint x="838" y="544" as="targetPoint" />
          </mxGeometry>
        </mxCell>
        <mxCell id="eu6fkqRIewA48-TLuKrc-18" value="标签命中接口" style="shape=parallelogram;perimeter=parallelogramPerimeter;whiteSpace=wrap;html=1;fixedSize=1;fontSize=12;" vertex="1" parent="WIyWlLk6GJQsqaUBKTNV-1">
          <mxGeometry x="998" y="444" width="120" height="40" as="geometry" />
        </mxCell>
        <mxCell id="eu6fkqRIewA48-TLuKrc-19" style="edgeStyle=orthogonalEdgeStyle;rounded=0;orthogonalLoop=1;jettySize=auto;html=1;exitX=0;exitY=0.5;exitDx=0;exitDy=0;entryX=1;entryY=0.5;entryDx=0;entryDy=0;fontSize=12;strokeWidth=1;entryPerimeter=0;" edge="1" parent="WIyWlLk6GJQsqaUBKTNV-1" source="eu6fkqRIewA48-TLuKrc-20" target="eu6fkqRIewA48-TLuKrc-25">
          <mxGeometry relative="1" as="geometry">
            <mxPoint x="838" y="544" as="targetPoint" />
          </mxGeometry>
        </mxCell>
        <mxCell id="eu6fkqRIewA48-TLuKrc-20" value="ID类型转换接口" style="shape=parallelogram;perimeter=parallelogramPerimeter;whiteSpace=wrap;html=1;fixedSize=1;fontSize=12;" vertex="1" parent="WIyWlLk6GJQsqaUBKTNV-1">
          <mxGeometry x="998" y="524" width="120" height="40" as="geometry" />
        </mxCell>
        <mxCell id="eu6fkqRIewA48-TLuKrc-21" value="下载人群" style="rounded=0;whiteSpace=wrap;html=1;" vertex="1" parent="WIyWlLk6GJQsqaUBKTNV-1">
          <mxGeometry x="438" y="364" width="120" height="40" as="geometry" />
        </mxCell>
        <mxCell id="eu6fkqRIewA48-TLuKrc-22" value="" style="edgeStyle=orthogonalEdgeStyle;rounded=0;orthogonalLoop=1;jettySize=auto;html=1;exitX=1;exitY=0.5;exitDx=0;exitDy=0;entryX=0;entryY=0.5;entryDx=0;entryDy=0;fontSize=20;endArrow=none;entryPerimeter=0;" edge="1" parent="WIyWlLk6GJQsqaUBKTNV-1" source="eu6fkqRIewA48-TLuKrc-5" target="eu6fkqRIewA48-TLuKrc-25">
          <mxGeometry relative="1" as="geometry">
            <mxPoint x="498" y="324" as="sourcePoint" />
            <mxPoint x="718" y="544" as="targetPoint" />
          </mxGeometry>
        </mxCell>
        <mxCell id="eu6fkqRIewA48-TLuKrc-23" value="MA" style="text;html=1;strokeColor=none;fillColor=none;align=left;verticalAlign=middle;rounded=0;fontSize=20;fontStyle=1" vertex="1" parent="WIyWlLk6GJQsqaUBKTNV-1">
          <mxGeometry x="298" y="124" width="110" height="40" as="geometry" />
        </mxCell>
        <mxCell id="eu6fkqRIewA48-TLuKrc-24" value="ID映射表" style="shape=cylinder3;html=1;boundedLbl=1;backgroundOutline=1;size=15;fontSize=12;fillColor=#eeeeee;strokeColor=#36393d;" vertex="1" parent="WIyWlLk6GJQsqaUBKTNV-1">
          <mxGeometry x="758" y="684" width="60" height="80" as="geometry" />
        </mxCell>
        <mxCell id="eu6fkqRIewA48-TLuKrc-25" value="ID映射表" style="shape=cylinder3;html=1;boundedLbl=1;backgroundOutline=1;size=15;fontSize=12;fillColor=#dae8fc;strokeColor=#6c8ebf;" vertex="1" parent="WIyWlLk6GJQsqaUBKTNV-1">
          <mxGeometry x="758" y="504" width="60" height="80" as="geometry" />
        </mxCell>
        <mxCell id="eu6fkqRIewA48-TLuKrc-26" value="标签ID类型转换" style="text;html=1;strokeColor=none;align=center;verticalAlign=middle;rounded=0;fontSize=12;fillColor=#FFFFFF;" vertex="1" parent="WIyWlLk6GJQsqaUBKTNV-1">
          <mxGeometry x="558" y="274" width="120" height="20" as="geometry" />
        </mxCell>
        <mxCell id="eu6fkqRIewA48-TLuKrc-27" value="人群ID类型转换" style="text;html=1;strokeColor=none;align=center;verticalAlign=middle;rounded=0;fontSize=12;fillColor=#FFFFFF;" vertex="1" parent="WIyWlLk6GJQsqaUBKTNV-1">
          <mxGeometry x="558" y="354" width="120" height="20" as="geometry" />
        </mxCell>
        <mxCell id="eu6fkqRIewA48-TLuKrc-28" value="用户ID类型转换" style="text;html=1;strokeColor=none;align=center;verticalAlign=middle;rounded=0;fontSize=12;fillColor=#FFFFFF;" vertex="1" parent="WIyWlLk6GJQsqaUBKTNV-1">
          <mxGeometry x="558" y="434" width="120" height="20" as="geometry" />
        </mxCell>
        <mxCell id="eu6fkqRIewA48-TLuKrc-29" value="用户ID类型转换" style="text;html=1;strokeColor=none;align=center;verticalAlign=middle;rounded=0;fontSize=12;fillColor=#FFFFFF;" vertex="1" parent="WIyWlLk6GJQsqaUBKTNV-1">
          <mxGeometry x="558" y="514" width="120" height="20" as="geometry" />
        </mxCell>
        <mxCell id="eu6fkqRIewA48-TLuKrc-30" value="人群ID类型转换" style="text;html=1;strokeColor=none;align=left;verticalAlign=middle;rounded=0;fontSize=12;fillColor=#FFFFFF;" vertex="1" parent="WIyWlLk6GJQsqaUBKTNV-1">
          <mxGeometry x="888" y="274" width="71" height="20" as="geometry" />
        </mxCell>
        <mxCell id="eu6fkqRIewA48-TLuKrc-31" value="人群ID类型转换" style="text;html=1;strokeColor=none;align=left;verticalAlign=middle;rounded=0;fontSize=12;fillColor=#FFFFFF;" vertex="1" parent="WIyWlLk6GJQsqaUBKTNV-1">
          <mxGeometry x="888" y="354" width="71" height="20" as="geometry" />
        </mxCell>
        <mxCell id="eu6fkqRIewA48-TLuKrc-32" value="标签ID类型转换" style="text;html=1;strokeColor=none;align=left;verticalAlign=middle;rounded=0;fontSize=12;fillColor=#FFFFFF;" vertex="1" parent="WIyWlLk6GJQsqaUBKTNV-1">
          <mxGeometry x="888" y="434" width="71" height="20" as="geometry" />
        </mxCell>
        <mxCell id="eu6fkqRIewA48-TLuKrc-33" value="用户ID类型转换" style="text;html=1;strokeColor=none;align=left;verticalAlign=middle;rounded=0;fontSize=12;fillColor=#FFFFFF;" vertex="1" parent="WIyWlLk6GJQsqaUBKTNV-1">
          <mxGeometry x="888" y="514" width="71" height="20" as="geometry" />
        </mxCell>
        <mxCell id="eu6fkqRIewA48-TLuKrc-34" style="edgeStyle=orthogonalEdgeStyle;rounded=0;orthogonalLoop=1;jettySize=auto;html=1;exitX=1;exitY=0.5;exitDx=0;exitDy=0;entryX=0.5;entryY=0;entryDx=0;entryDy=0;fontSize=12;strokeWidth=1;" edge="1" parent="WIyWlLk6GJQsqaUBKTNV-1" source="eu6fkqRIewA48-TLuKrc-35" target="eu6fkqRIewA48-TLuKrc-3">
          <mxGeometry relative="1" as="geometry" />
        </mxCell>
        <mxCell id="eu6fkqRIewA48-TLuKrc-35" value="接口调用" style="rounded=1;whiteSpace=wrap;html=1;fontSize=12;fillColor=#ffe6cc;verticalAlign=middle;strokeColor=#d79b00;" vertex="1" parent="WIyWlLk6GJQsqaUBKTNV-1">
          <mxGeometry x="558" y="124" width="240" height="40" as="geometry" />
        </mxCell>
      </root>
    </mxGraphModel>
  </diagram>
</mxfile>
